<svg width="20" height="20" viewBox="0 0 20 20" fill="none" xmlns="http://www.w3.org/2000/svg">
<g clip-path="url(#clip0_1313_731)">
<path fill-rule="evenodd" clip-rule="evenodd" d="M15.1998 0.0310727C14.9599 0.104057 14.7405 0.294393 14.6521 0.506169C14.6239 0.573769 14.5912 0.733657 14.5793 0.861473L14.5577 1.09386L14.4208 1.15523C14.3455 1.18898 14.173 1.28886 14.0375 1.37718L13.7911 1.53777L13.5872 1.42886C13.4172 1.33802 13.3474 1.31991 13.1664 1.31974C12.9112 1.3195 12.6883 1.4117 12.5431 1.57754C12.4029 1.73785 11.9779 2.49578 11.9328 2.66625C11.8368 3.02865 12.0165 3.40062 12.3974 3.62807L12.5115 3.69619L12.5141 4.16514L12.5167 4.63408L12.3305 4.74902C12.0247 4.93771 11.876 5.22454 11.9105 5.5589C11.9259 5.70819 11.9798 5.82972 12.2049 6.22305C12.5186 6.77143 12.6444 6.90555 12.9204 6.98577C13.1592 7.05519 13.3365 7.03297 13.5983 6.90078L13.7975 6.80024L13.9764 6.92508C14.0747 6.99374 14.2458 7.09298 14.3565 7.14562L14.5579 7.2413L14.5794 7.4727C14.6167 7.87442 14.7638 8.10236 15.0834 8.25369C15.2389 8.32734 15.289 8.33261 15.8334 8.33261C16.3744 8.33261 16.4288 8.32698 16.5836 8.25489C16.765 8.17039 16.9487 7.98456 17.0204 7.81278C17.0454 7.75302 17.0755 7.5998 17.0874 7.4723L17.1089 7.24049L17.277 7.16187C17.3694 7.11864 17.5413 7.02002 17.659 6.94274L17.8731 6.80221L18.0727 6.90298C18.4312 7.08395 18.7645 7.0599 19.0395 6.83322C19.1831 6.71485 19.6758 5.88758 19.734 5.66694C19.7815 5.48702 19.7577 5.27776 19.6702 5.10815C19.5866 4.94602 19.4921 4.8479 19.3054 4.7295L19.1538 4.63336L19.151 4.16682L19.1482 3.70027L19.3415 3.58092C19.6624 3.38287 19.8212 3.01839 19.7353 2.67729C19.6832 2.47045 19.1915 1.62677 19.0568 1.51321C18.8921 1.37434 18.7385 1.32217 18.4964 1.3229C18.3115 1.32346 18.2446 1.34088 18.0797 1.43146L17.8834 1.53935L17.5957 1.35866C17.4374 1.25929 17.2633 1.15946 17.2087 1.13684C17.1154 1.09822 17.1082 1.08176 17.0903 0.868945C17.0569 0.470177 16.9033 0.231025 16.5834 0.0795047C16.4276 0.0057287 16.3797 0.000744703 15.85 0.0031207C15.5384 0.0045127 15.2458 0.0170967 15.1998 0.0310727ZM16.2335 1.09159C16.2339 1.55165 16.3182 1.70179 16.6385 1.81298C16.8834 1.89798 17.1458 2.04594 17.3834 2.2329C17.7545 2.52498 17.8331 2.5329 18.2122 2.31634C18.3564 2.23398 18.4856 2.16659 18.4993 2.16659C18.5131 2.16659 18.6145 2.32339 18.7247 2.51503L18.9252 2.86347L18.6566 3.02337C18.2377 3.27279 18.223 3.30798 18.288 3.9094C18.3063 4.07841 18.3079 4.31096 18.2918 4.4594C18.23 5.0316 18.2435 5.0633 18.6568 5.31162L18.9258 5.47331L18.7252 5.81995C18.6149 6.01061 18.5104 6.16659 18.4931 6.16659C18.4758 6.16659 18.3585 6.10637 18.2325 6.03276C17.8647 5.81798 17.7392 5.81609 17.4951 6.02167C17.2586 6.22087 16.9793 6.38926 16.7235 6.48691C16.3129 6.64365 16.2339 6.7653 16.2335 7.24159L16.2334 7.49993H15.8378H15.4423L15.4261 7.16454C15.4037 6.69837 15.4035 6.69817 14.8 6.42314C14.6625 6.36048 14.4541 6.23587 14.337 6.14624C13.8857 5.80106 13.8469 5.79529 13.4632 6.01659C13.3201 6.0991 13.1887 6.16659 13.171 6.16659C13.1533 6.16659 13.0497 6.01132 12.9408 5.82154L12.7428 5.4765L12.9298 5.36675C13.3851 5.09939 13.4626 4.9847 13.398 4.67348C13.3465 4.42542 13.3461 3.89715 13.3973 3.6577C13.4546 3.3891 13.3907 3.26426 13.1 3.07711C12.7084 2.82498 12.7265 2.89189 12.9454 2.5052C13.0509 2.31897 13.1497 2.16659 13.165 2.16659C13.1803 2.16659 13.3129 2.2341 13.4596 2.31659C13.8227 2.52079 13.9379 2.51656 14.1992 2.28944C14.3974 2.11722 14.6931 1.94166 14.9433 1.84775C15.3511 1.69468 15.4328 1.56858 15.4332 1.09159L15.4334 0.833265H15.8334H16.2334L16.2335 1.09159ZM15.5667 2.52078C14.7565 2.67762 14.1667 3.37102 14.1667 4.16659C14.1667 5.06624 14.9337 5.83326 15.8334 5.83326C16.7272 5.83326 17.4979 5.06951 17.4996 4.18193C17.5014 3.29274 16.8027 2.5571 15.9181 2.51684C15.7707 2.51013 15.6125 2.5119 15.5667 2.52078ZM16.2359 3.45452C16.4296 3.55996 16.574 3.74628 16.6337 3.96769C16.7668 4.46209 16.3494 4.99993 15.8326 4.99993C15.3198 4.99993 14.9132 4.49303 15.0278 3.9967C15.1542 3.44892 15.7414 3.1854 16.2359 3.45452ZM5.95784 5.86849C5.61461 5.9522 5.26334 6.24681 5.11444 6.57585C5.03773 6.74536 5.01717 6.84669 5.00197 7.13039L4.98336 7.47752L4.75156 7.57556C4.43984 7.70742 3.9939 7.96152 3.68387 8.18395C3.54385 8.28441 3.41927 8.36659 3.40701 8.36659C3.39474 8.36659 3.244 8.29534 3.07203 8.20826C2.76685 8.05373 2.75204 8.04993 2.45469 8.04993C2.18158 8.04993 2.12689 8.06089 1.92666 8.15574C1.58865 8.31587 1.46639 8.46539 0.976678 9.31757C0.449566 10.2348 0.396326 10.3503 0.374358 10.624C0.334422 11.1215 0.566574 11.5417 1.04197 11.8322L1.32105 12.0027L1.2963 12.1763C1.26405 12.4026 1.26435 13.4326 1.29673 13.6602L1.3219 13.8372L1.16929 13.9244C0.895558 14.0808 0.717294 14.2249 0.606118 14.3798C0.383582 14.6896 0.311102 15.1007 0.416454 15.4554C0.468294 15.63 1.25561 17.0317 1.45757 17.309C1.76381 17.7295 2.36822 17.9107 2.85587 17.7282C2.9613 17.6888 3.12002 17.6138 3.20859 17.5615C3.29716 17.5093 3.38305 17.4666 3.39946 17.4666C3.41588 17.4666 3.54623 17.5505 3.68915 17.653C4.03053 17.898 4.33825 18.0759 4.69361 18.234L4.98336 18.3628L5.00167 18.7064C5.01653 18.9851 5.03727 19.0877 5.11161 19.2499C5.23156 19.5117 5.48768 19.7696 5.74653 19.8892L5.95002 19.9833H7.08336H8.21669L8.42017 19.8892C8.67904 19.7696 8.93516 19.5117 9.05509 19.2499C9.12933 19.0879 9.15021 18.9849 9.16505 18.7078L9.18336 18.3656L9.50002 18.2224C9.85619 18.0613 10.2561 17.8267 10.5421 17.6113C10.6477 17.5317 10.7481 17.4666 10.7653 17.4666C10.7824 17.4666 10.8835 17.5174 10.9899 17.5795C11.2588 17.7365 11.4669 17.7999 11.7126 17.7999C12.1035 17.7999 12.4926 17.608 12.7078 17.309C12.8542 17.1056 13.5834 15.8443 13.693 15.6049C13.8636 15.2322 13.8188 14.7643 13.5785 14.4101C13.4517 14.223 13.3607 14.1455 13.0475 13.9572L12.845 13.8355L12.8701 13.6594C12.9024 13.4325 12.9026 12.4022 12.8704 12.1763L12.8457 12.0027L13.1194 11.8354C13.4211 11.651 13.5564 11.5034 13.6893 11.2129C13.8005 10.97 13.8276 10.6232 13.7539 10.3856C13.677 10.1376 12.7746 8.58222 12.6075 8.40955C12.5274 8.32674 12.3669 8.21583 12.2408 8.15612C12.0397 8.06085 11.9853 8.04993 11.712 8.04993C11.4132 8.04993 11.4012 8.05306 11.0833 8.21405C10.8616 8.32626 10.7453 8.36843 10.7155 8.34738C10.2958 8.05138 9.91736 7.82248 9.58457 7.66328L9.17426 7.46702L9.16061 7.12514C9.1492 6.83914 9.13156 6.74936 9.05269 6.57585C8.93725 6.32187 8.67837 6.06629 8.40845 5.93979L8.21669 5.84993L7.15002 5.8439C6.56336 5.84058 6.02687 5.85165 5.95784 5.86849ZM8.10315 6.71822C8.29644 6.81817 8.33309 6.93144 8.33323 7.42933C8.33341 8.04382 8.34242 8.0577 8.87628 8.26574C9.37756 8.46109 9.81872 8.7155 10.2334 9.04836C10.645 9.37878 10.6974 9.38062 11.2309 9.08326C11.8741 8.72476 11.8789 8.72751 12.5052 9.81659C12.8222 10.3677 12.9656 10.6488 12.966 10.72C12.9672 10.8974 12.8412 11.0322 12.4691 11.2516C11.9311 11.569 11.9253 11.5809 12.0165 12.1862C12.0801 12.6084 12.0801 13.2248 12.0165 13.647C11.948 14.1016 11.9519 14.1772 12.0498 14.2936C12.0956 14.348 12.2911 14.4847 12.4844 14.5974C12.8573 14.815 12.9663 14.9327 12.9666 15.118C12.9667 15.2304 12.1278 16.7194 11.9814 16.8666C11.9135 16.9349 11.8671 16.9496 11.7243 16.9483C11.5724 16.9468 11.5046 16.92 11.1964 16.7399C10.7569 16.483 10.6517 16.4719 10.4109 16.6568C9.93427 17.0229 9.81402 17.1084 9.59246 17.2386C9.41584 17.3424 8.53594 17.7328 8.47774 17.7332C8.47465 17.7332 8.4409 17.7838 8.40274 17.8455C8.34152 17.9446 8.33334 18.0103 8.33323 18.4039C8.33309 18.9017 8.29644 19.015 8.10315 19.115C7.95527 19.1914 6.21144 19.1914 6.06356 19.115C5.87027 19.015 5.83362 18.9017 5.83348 18.4039C5.83337 18.0146 5.82477 17.9439 5.76601 17.8488C5.72897 17.7889 5.68023 17.7323 5.65768 17.723C5.63513 17.7138 5.44643 17.6373 5.23834 17.553C4.77804 17.3667 4.31821 17.1004 3.96663 16.8165C3.82196 16.6997 3.67377 16.5882 3.63733 16.5687C3.48838 16.489 3.34027 16.528 2.94042 16.752C2.58571 16.9508 2.53631 16.9694 2.40007 16.9552C2.19609 16.934 2.14009 16.8619 1.62054 15.9528C1.21832 15.249 1.19223 15.1926 1.20948 15.064C1.23357 14.8843 1.31275 14.8056 1.67921 14.5967C2.21517 14.2913 2.23781 14.247 2.15349 13.6702C2.08534 13.204 2.08534 12.6291 2.15349 12.163C2.23811 11.5842 2.22057 11.5502 1.67548 11.2383C1.31929 11.0345 1.2335 10.9483 1.20964 10.7704C1.19313 10.6473 1.21449 10.5936 1.43329 10.2088C2.30423 8.67674 2.26253 8.70798 2.93581 9.08326C3.23251 9.24864 3.35597 9.29993 3.45735 9.29993C3.59981 9.29993 3.60879 9.29461 4.08839 8.92634C4.39025 8.69455 4.97839 8.3737 5.38336 8.2199C5.80971 8.05796 5.83336 8.01702 5.83336 7.44086C5.83336 6.94232 5.86313 6.84177 6.04331 6.73191C6.14237 6.6715 6.21641 6.66683 7.07668 6.66672C7.84826 6.66662 8.02004 6.67523 8.10315 6.71822ZM6.56273 10.0519C5.47482 10.2488 4.61315 11.0298 4.27722 12.1234C4.19613 12.3874 4.18724 12.4664 4.18804 12.9166C4.18882 13.3619 4.19867 13.4487 4.2781 13.7098C4.81936 15.4892 6.74626 16.3408 8.38336 15.5242C9.11442 15.1595 9.63998 14.5261 9.88879 13.7098C9.96873 13.4475 9.97817 13.3638 9.97817 12.9166C9.97817 12.4694 9.96873 12.3856 9.88879 12.1234C9.71953 11.5681 9.46333 11.156 9.05144 10.7764C8.38214 10.1597 7.4562 9.89014 6.56273 10.0519ZM7.46669 10.8802C8.74111 11.1079 9.50493 12.5089 9.00429 13.7005C8.4236 15.0826 6.66293 15.4366 5.61669 14.3816C4.59313 13.3495 4.908 11.6307 6.23161 11.025C6.62125 10.8467 7.01827 10.8001 7.46669 10.8802Z" fill="#868686"/>
</g>
<defs>
<clipPath id="clip0_1313_731">
<rect width="20" height="20" fill="white"/>
</clipPath>
</defs>
</svg>
