<svg width="20" height="20" viewBox="0 0 20 20" fill="none" xmlns="http://www.w3.org/2000/svg">
<g clip-path="url(#clip0_1313_735)">
<path fill-rule="evenodd" clip-rule="evenodd" d="M9.43333 0.020774C7.82 0.168274 6.40083 0.751607 5.19667 1.76161C3.74667 2.97661 2.79333 4.77744 2.595 6.67327L2.55583 7.05577L2.35667 7.09661C1.78417 7.21494 1.335 7.46494 0.883333 7.91661C0.51 8.28994 0.32 8.58661 0.164167 9.04244C0.0125 9.48494 0.000833333 9.64744 0 11.2933C0 12.5724 0.00916667 12.8799 0.0525 13.0933C0.130833 13.4733 0.249167 13.7841 0.425833 14.0791C0.920833 14.9049 1.81417 15.4516 2.78167 15.5191C3.0975 15.5416 3.23833 15.4858 3.33917 15.2983C3.3975 15.1899 3.4 14.9924 3.4 11.1074C3.4 8.47327 3.4125 6.91577 3.435 6.70661C3.56833 5.48077 4.09417 4.22911 4.87833 3.26911C5.9025 2.01577 7.335 1.19327 8.98333 0.911607C9.44583 0.833274 10.5542 0.833274 11.0167 0.911607C12.1267 1.10077 13.1108 1.51911 13.9742 2.16827C15.4133 3.24911 16.3717 4.92827 16.565 6.70661C16.5875 6.91827 16.6 8.59411 16.5992 11.5233C16.5992 16.5266 16.6108 16.2608 16.3675 16.7274C16.1075 17.2283 15.6583 17.6116 15.1242 17.7891C14.8517 17.8791 14.8442 17.8799 13.8883 17.8816L12.9258 17.8833L12.8583 17.6999C12.6908 17.2474 12.2692 16.8474 11.8 16.6958C11.615 16.6358 11.475 16.6224 10.85 16.6091C9.93667 16.5883 9.60833 16.6233 9.285 16.7774C8.71667 17.0474 8.35917 17.5708 8.31167 18.1999C8.2525 18.9916 8.8 19.7449 9.585 19.9491C9.86583 20.0224 11.3992 20.0224 11.685 19.9491C11.9983 19.8683 12.2325 19.7341 12.4683 19.4991C12.6817 19.2874 12.9 18.9308 12.9 18.7949C12.9 18.7366 12.9467 18.7333 13.7417 18.7333C14.8883 18.7324 15.2525 18.6741 15.8 18.4024C16.5075 18.0516 17.0517 17.4108 17.3042 16.6333C17.3867 16.3766 17.41 16.2399 17.4242 15.9124L17.4425 15.5083L17.72 15.4399C18.8025 15.1724 19.5842 14.4033 19.9108 13.2833C19.9742 13.0658 19.9792 12.9399 19.9908 11.3974C20.005 9.55244 19.9917 9.39577 19.77 8.86327C19.4025 7.98077 18.5683 7.28744 17.6433 7.09661L17.4442 7.05577L17.405 6.67327C17.1742 4.46244 15.9667 2.47827 14.095 1.23494C13.2042 0.643274 12.1667 0.244107 11.1 0.0841074C10.7567 0.0324407 9.73 -0.00672595 9.43333 0.020774ZM9.665 3.77911C9.24083 3.86994 8.83833 4.17994 8.66333 4.54994C8.61167 4.65994 8.48 5.03911 8.37167 5.39327C8.16167 6.08077 8.105 6.18327 7.915 6.21911C7.84333 6.23244 7.60417 6.19161 7.21167 6.09911C6.4525 5.92077 6.28333 5.89827 6.01583 5.93577C5.8025 5.96577 5.42917 6.12994 5.28167 6.25744C4.88833 6.59994 4.68083 7.15577 4.76667 7.63494C4.835 8.01494 4.95667 8.21161 5.45833 8.75411C6.04417 9.38827 6.06667 9.41827 6.06667 9.55661C6.06667 9.71994 6.03083 9.77244 5.63667 10.1958C4.94417 10.9391 4.86833 11.0516 4.77917 11.4733C4.62667 12.1933 5.06333 12.9174 5.80167 13.1674C6.095 13.2674 6.42167 13.2433 7.145 13.0683C7.75333 12.9216 7.92667 12.9058 8.04667 12.9841C8.1475 13.0499 8.1975 13.1716 8.4 13.8391C8.49167 14.1441 8.59167 14.4516 8.62083 14.5224C8.77167 14.8849 9.1475 15.2183 9.54 15.3374C9.72333 15.3933 9.8325 15.4049 10.0658 15.3941C10.3217 15.3816 10.3925 15.3641 10.605 15.2583C10.9108 15.1074 11.1717 14.8524 11.2983 14.5833C11.35 14.4733 11.4708 14.1208 11.5667 13.7999C11.76 13.1541 11.7992 13.0608 11.9075 12.9849C12.0217 12.9058 12.175 12.9208 12.8775 13.0833C13.6 13.2499 13.8233 13.2658 14.1292 13.1708C14.4075 13.0841 14.5875 12.9716 14.7883 12.7591C15.06 12.4724 15.2008 12.1266 15.1992 11.7524C15.1975 11.2516 15.085 11.0424 14.445 10.3424C13.93 9.77994 13.8567 9.66661 13.8917 9.48411C13.9017 9.43077 14.0533 9.23744 14.2625 9.00994C14.9817 8.22911 15.0608 8.11911 15.1483 7.78494C15.3308 7.08494 14.9983 6.38077 14.3333 6.05827C14.1475 5.96827 14.0717 5.95161 13.8 5.93994C13.5142 5.92827 13.4192 5.94161 12.8275 6.07994C12.4675 6.16411 12.1317 6.23327 12.0825 6.23327C11.91 6.23327 11.7858 6.05577 11.6508 5.61494C11.3192 4.53327 11.2458 4.37077 10.9733 4.12577C10.7825 3.95411 10.48 3.80911 10.2283 3.76827C9.97083 3.72661 9.9025 3.72744 9.665 3.77911ZM10.17 4.60494C10.3425 4.66327 10.4617 4.75911 10.5308 4.89494C10.565 4.96244 10.6775 5.29494 10.7808 5.63411C10.8842 5.97244 11.0067 6.32827 11.0525 6.42411C11.2183 6.76577 11.6275 7.03077 12.03 7.05744C12.2083 7.06911 12.3742 7.04327 12.905 6.91911C13.2658 6.83494 13.6325 6.76661 13.72 6.76661C14.1517 6.76661 14.45 7.16661 14.3358 7.59161C14.3067 7.69744 14.21 7.82661 13.9408 8.11994C13.1833 8.94161 13.1342 9.01161 13.0658 9.35911C13.0167 9.60577 13.06 9.89077 13.1833 10.1333C13.2258 10.2174 13.4817 10.5258 13.7525 10.8183C14.0225 11.1108 14.2708 11.4099 14.3042 11.4833C14.4567 11.8183 14.3025 12.2049 13.9592 12.3483C13.7767 12.4249 13.6758 12.4149 12.9742 12.2499C12.0825 12.0408 11.8242 12.0491 11.435 12.2991C11.1142 12.5049 11.0208 12.6999 10.65 13.9416C10.6017 14.1024 10.5242 14.2783 10.4775 14.3341C10.2025 14.6616 9.6775 14.6366 9.44167 14.2866C9.40333 14.2299 9.28583 13.8983 9.18167 13.5499C9.07667 13.2016 8.9525 12.8374 8.90583 12.7399C8.79917 12.5191 8.59 12.3241 8.32333 12.1974C8.01917 12.0541 7.78833 12.0624 6.9775 12.2499C6.62083 12.3324 6.27417 12.3999 6.20833 12.3999C6.0175 12.3999 5.80583 12.2783 5.69583 12.1049C5.57583 11.9149 5.5625 11.6341 5.66583 11.4399C5.70167 11.3724 5.9425 11.0916 6.19917 10.8166C6.80167 10.1733 6.88333 10.0241 6.88333 9.56744C6.88333 9.11161 6.82833 9.01161 6.20083 8.33327C5.92167 8.03077 5.67 7.73161 5.6425 7.66744C5.61 7.59161 5.5975 7.48161 5.60667 7.34411C5.6175 7.17411 5.63833 7.11244 5.72 7.00911C5.85 6.84744 6.03 6.75827 6.2275 6.75994C6.31333 6.76077 6.67833 6.82994 7.03833 6.91411C7.775 7.08577 7.90333 7.09494 8.205 6.99994C8.44167 6.92494 8.61667 6.80494 8.77 6.61244C8.92417 6.41994 8.94583 6.36661 9.165 5.65411C9.27583 5.29244 9.3875 4.95661 9.41333 4.90661C9.55167 4.64161 9.885 4.50827 10.17 4.60494ZM2.56667 11.2799V14.6608L2.40333 14.6174C1.73583 14.4416 1.15417 13.8833 0.925 13.1999C0.855 12.9916 0.851667 12.9216 0.840833 11.3991C0.8275 9.60327 0.836667 9.50911 1.06417 9.04994C1.2725 8.62827 1.60667 8.29494 2.035 8.07911C2.21417 7.98911 2.44333 7.90661 2.525 7.90244C2.55833 7.90077 2.56667 8.59744 2.56667 11.2799ZM17.965 8.08994C18.505 8.35244 18.9083 8.82827 19.0883 9.41661C19.145 9.59911 19.15 9.75994 19.15 11.2833C19.15 12.9099 19.1483 12.9558 19.0767 13.1833C18.8608 13.8683 18.2708 14.4399 17.5967 14.6174L17.4333 14.6608V11.2774V7.89494L17.5417 7.91577C17.6017 7.92744 17.7917 8.00577 17.965 8.08994ZM9.53 8.01494C9.10583 8.13161 8.71583 8.46661 8.51333 8.88744C8.4025 9.11827 8.3875 9.18077 8.37333 9.47411C8.35417 9.87661 8.41833 10.1474 8.59833 10.4258C9.17833 11.3224 10.37 11.4591 11.115 10.7149C11.3692 10.4608 11.5133 10.1841 11.5725 9.83911C11.7058 9.06161 11.2167 8.26411 10.4633 8.02994C10.2267 7.95577 9.77 7.94911 9.53 8.01494ZM10.3992 8.91744C10.4808 8.97244 10.5925 9.08994 10.6467 9.17827C10.7767 9.38744 10.7883 9.70577 10.675 9.92161C10.3858 10.4699 9.64 10.5074 9.31917 9.98827C9.20417 9.80161 9.1675 9.51494 9.23333 9.31577C9.2875 9.15244 9.48333 8.93827 9.65 8.86077C9.86083 8.76161 10.2058 8.78744 10.3992 8.91744ZM11.6025 17.5058C12.1625 17.7516 12.3075 18.4858 11.88 18.9133C11.8267 18.9658 11.7083 19.0449 11.6167 19.0874C11.4567 19.1624 11.4192 19.1658 10.6667 19.1658C10.2358 19.1658 9.82917 19.1508 9.7625 19.1324C9.48583 19.0558 9.23083 18.7849 9.17 18.5024C9.06833 18.0274 9.365 17.5658 9.835 17.4683C9.91667 17.4508 10.3208 17.4408 10.7333 17.4458C11.3275 17.4524 11.5083 17.4649 11.6025 17.5058Z" fill="#868686"/>
</g>
<defs>
<clipPath id="clip0_1313_735">
<rect width="20" height="20" fill="white"/>
</clipPath>
</defs>
</svg>
