<svg width="20" height="21" viewBox="0 0 20 21" fill="none" xmlns="http://www.w3.org/2000/svg">
<path d="M19.5114 8.89156L11.1781 0.491665C10.8656 0.176846 10.4418 0 10 0C9.55816 0 9.13441 0.176846 8.82188 0.491665L0.488551 8.89156C0.333035 9.04715 0.209759 9.23236 0.125889 9.43641C0.0420193 9.64046 -0.000769433 9.85927 1.04724e-05 10.0801V20.16C1.04724e-05 20.3828 0.0878079 20.5964 0.244088 20.754C0.400368 20.9115 0.612329 21 0.833343 21H7.5C7.72102 21 7.93298 20.9115 8.08926 20.754C8.24554 20.5964 8.33333 20.3828 8.33333 20.16V14.2801H11.6667V20.16C11.6667 20.3828 11.7545 20.5964 11.9107 20.754C12.067 20.9115 12.279 21 12.5 21H19.1667C19.3877 21 19.5996 20.9115 19.7559 20.754C19.9122 20.5964 20 20.3828 20 20.16V10.0801C20.0008 9.85927 19.958 9.64046 19.8741 9.43641C19.7902 9.23236 19.667 9.04715 19.5114 8.89156ZM18.3333 19.32H13.3333V13.4401C13.3333 13.2173 13.2455 13.0037 13.0893 12.8461C12.933 12.6886 12.721 12.6001 12.5 12.6001H7.5C7.27899 12.6001 7.06703 12.6886 6.91075 12.8461C6.75447 13.0037 6.66667 13.2173 6.66667 13.4401V19.32H1.66668V10.0801L10 1.68025L18.3333 10.0801V19.32Z" fill="#0076C8"/>
</svg>
